<svg width="212" height="35" viewBox="0 0 212 35" fill="none" xmlns="http://www.w3.org/2000/svg">
<path d="M6.615 21.168L6.588 24.408L8.451 24.651C8.451 25.389 8.244 26.172 7.83 27H1.269L1.026 25.515C2.034 25.101 2.79 24.84 3.294 24.732C3.294 24.678 3.213 19.917 3.051 10.449L0.81 9.747L1.026 8.1H8.019C8.307 8.586 8.478 9.297 8.532 10.233C7.614 10.377 7.011 10.467 6.723 10.503L6.642 16.605L11.961 10.503L10.26 10.233C10.26 9.693 10.422 8.982 10.746 8.1H17.766C17.874 8.748 17.946 9.297 17.982 9.747C17.028 10.107 16.281 10.341 15.741 10.449L10.8 16.875L16.254 24.381L18.657 24.624C18.657 25.38 18.45 26.172 18.036 27H14.175L8.613 19.008L6.615 21.168ZM32.7073 8.397L32.7343 8.667C32.7343 9.405 32.6173 10.035 32.3833 10.557C32.1493 10.737 31.7803 10.881 31.2763 10.989L35.7853 24.327L38.3503 24.651C38.3503 25.389 38.1433 26.172 37.7293 27H31.1683L30.9253 25.515C31.6813 25.227 32.1763 25.038 32.4103 24.948L31.3303 21.897H25.2553C24.7153 23.499 24.4273 24.336 24.3913 24.408L26.2543 24.651C26.2543 25.029 26.1823 25.47 26.0383 25.974C25.8943 26.46 25.7593 26.802 25.6333 27H19.0723L18.8293 25.515C19.6393 25.173 20.3683 24.921 21.0163 24.759L25.5523 10.881C24.3463 10.701 23.4373 10.467 22.8253 10.179C22.8253 9.657 22.9063 9.198 23.0683 8.802C23.4463 8.676 24.3283 8.532 25.7143 8.37C27.1183 8.19 28.4503 8.1 29.7103 8.1C30.9883 8.1 31.9873 8.199 32.7073 8.397ZM29.2243 15.822L28.4413 12.258H28.1713L27.3073 15.984L26.0383 19.359H30.5473L29.2243 15.822ZM57.0683 27L53.5043 12.285H53.2343L49.6163 27H45.4043L41.0843 10.368C40.5263 10.224 39.7703 9.963 38.8163 9.585L39.0593 8.1H45.6203C46.0343 8.928 46.2413 9.711 46.2413 10.449C45.7013 10.557 45.0803 10.638 44.3783 10.692L47.2133 22.626L51.4793 8.1H55.5833L59.1203 22.464L62.0363 10.368C61.4783 10.224 60.7223 9.963 59.7683 9.585L60.0113 8.1H66.5723C66.9863 8.928 67.1933 9.711 67.1933 10.449C66.6533 10.557 66.0323 10.638 65.3303 10.692L60.9563 27H57.0683ZM76.4847 8.1C76.4667 8.1 76.4667 8.118 76.4847 8.154C76.5207 8.19 76.5567 8.271 76.5927 8.397C76.6467 8.505 76.7007 8.64 76.7547 8.802C76.8627 9.09 76.9347 9.567 76.9707 10.233C76.0527 10.377 75.4497 10.467 75.1617 10.503L75.0267 24.408L76.8897 24.651C76.8897 25.389 76.6827 26.172 76.2687 27H69.7077L69.4647 25.515C70.4727 25.101 71.2287 24.84 71.7327 24.732C71.7147 23.67 71.6877 22.176 71.6517 20.25C71.5977 15.93 71.5437 12.663 71.4897 10.449L69.2487 9.747L69.4647 8.1H76.4847ZM91.7572 10.8C91.7572 13.32 91.7392 15.3 91.7032 16.74H94.4572L94.7272 14.877C95.6452 14.877 96.5362 15.102 97.4002 15.552V20.898L95.6182 21.033C95.1862 20.385 94.9342 19.818 94.8622 19.332H91.6762L91.6222 24.408L94.2952 24.705C94.2952 25.407 94.0882 26.172 93.6742 27H86.3032L86.0602 25.515C87.2302 25.065 87.9862 24.804 88.3282 24.732C88.3102 23.67 88.2922 22.176 88.2742 20.25C88.2022 15.93 88.1392 12.663 88.0852 10.449L85.8442 9.747L86.0602 8.1H99.3172C99.3712 8.586 99.3982 9.207 99.3982 9.963C99.3982 10.701 99.2632 11.718 98.9932 13.014C98.5972 13.14 97.9942 13.203 97.1842 13.203L96.5902 13.176H96.4552L95.8342 10.8H91.7572ZM112.646 22.086C113.078 22.014 113.402 21.978 113.618 21.978C113.852 21.978 114.347 22.041 115.103 22.167C115.175 22.311 115.274 22.77 115.4 23.544C115.544 24.318 115.616 24.948 115.616 25.434C115.616 25.902 115.562 26.424 115.454 27H102.359L102.116 25.515C102.998 25.155 103.754 24.894 104.384 24.732C104.384 24.678 104.303 19.917 104.141 10.449L101.9 9.747L102.116 8.1H109.136C109.118 8.1 109.118 8.118 109.136 8.154C109.172 8.19 109.208 8.271 109.244 8.397C109.298 8.505 109.352 8.64 109.406 8.802C109.514 9.09 109.586 9.567 109.622 10.233C108.704 10.377 108.101 10.467 107.813 10.503C107.741 16.713 107.696 21.348 107.678 24.408H112.052L112.646 22.086ZM124.926 24.462C127.914 24.462 129.408 22.167 129.408 17.577C129.408 12.987 127.914 10.692 124.926 10.692C123.63 10.692 122.496 10.89 121.524 11.286C120.696 13.014 120.282 15.021 120.282 17.307C120.282 19.575 120.624 21.339 121.308 22.599C121.992 23.841 123.198 24.462 124.926 24.462ZM124.926 7.776C127.932 7.776 130.047 8.568 131.271 10.152C132.495 11.718 133.107 14.121 133.107 17.361C133.107 19.395 132.846 21.132 132.324 22.572C131.802 24.012 130.92 25.164 129.678 26.028C128.436 26.892 126.852 27.324 124.926 27.324C121.992 27.324 119.859 26.505 118.527 24.867C117.213 23.229 116.556 20.844 116.556 17.712C116.556 11.088 119.346 7.776 124.926 7.776ZM151.911 27L148.347 12.285H148.077L144.459 27H140.247L135.927 10.368C135.369 10.224 134.613 9.963 133.659 9.585L133.902 8.1H140.463C140.877 8.928 141.084 9.711 141.084 10.449C140.544 10.557 139.923 10.638 139.221 10.692L142.056 22.626L146.322 8.1H150.426L153.963 22.464L156.879 10.368C156.321 10.224 155.565 9.963 154.611 9.585L154.854 8.1H161.415C161.829 8.928 162.036 9.711 162.036 10.449C161.496 10.557 160.875 10.638 160.173 10.692L155.799 27H151.911ZM169.329 10.8C169.329 12.852 169.311 14.616 169.275 16.092H172.029L172.299 14.229C173.217 14.229 174.108 14.454 174.972 14.904V20.304L173.19 20.385C172.758 19.737 172.506 19.17 172.434 18.684H169.248C169.212 21.204 169.194 23.103 169.194 24.381H173.811L174.405 22.032C175.521 22.032 176.367 22.086 176.943 22.194C177.213 23.22 177.348 24.156 177.348 25.002C177.348 25.83 177.321 26.496 177.267 27H163.875L163.632 25.515C164.802 25.065 165.558 24.804 165.9 24.732C165.882 23.67 165.864 22.176 165.846 20.25C165.774 15.93 165.711 12.663 165.657 10.449L163.416 9.747L163.632 8.1H176.889C176.943 8.586 176.97 9.198 176.97 9.936C176.97 10.656 176.835 11.664 176.565 12.96C176.007 13.14 175.161 13.23 174.027 13.23L173.406 10.8H169.329ZM186.251 8.1C189.401 8.1 191.489 8.55 192.515 9.45C193.451 10.26 193.919 11.511 193.919 13.203C193.919 15.831 192.551 17.622 189.815 18.576L193.703 24.435L196.025 24.678C196.025 25.452 195.818 26.226 195.404 27H191.489L186.197 18.927H185.333L185.252 24.435L187.223 24.651C187.223 25.389 187.016 26.172 186.602 27H179.933L179.69 25.515C180.77 25.083 181.526 24.822 181.958 24.732C181.922 22.518 181.877 19.845 181.823 16.713C181.769 13.581 181.733 11.484 181.715 10.422L179.474 9.747C179.492 9.333 179.573 8.784 179.717 8.1H186.251ZM188.384 10.989C187.826 10.863 187.079 10.8 186.143 10.8H185.387C185.351 13.284 185.333 15.147 185.333 16.389L186.656 16.362C187.718 16.344 188.555 16.128 189.167 15.714C189.797 15.282 190.112 14.454 190.112 13.23C190.112 12.006 189.536 11.259 188.384 10.989ZM204.321 24.408C206.409 24.408 207.453 23.517 207.453 21.735C207.453 20.979 207.057 20.34 206.265 19.818C205.689 19.422 204.897 18.999 203.889 18.549C202.899 18.081 202.152 17.712 201.648 17.442C201.162 17.172 200.595 16.794 199.947 16.308C198.705 15.354 198.084 14.166 198.084 12.744C198.084 11.322 198.633 10.143 199.731 9.207C200.847 8.253 202.35 7.776 204.24 7.776C206.13 7.776 208.146 8.379 210.288 9.585C210.288 10.881 210.153 12.285 209.883 13.797C209.307 13.977 208.452 14.067 207.318 14.067L206.535 10.854C205.869 10.656 205.14 10.557 204.348 10.557C203.556 10.557 202.944 10.728 202.512 11.07C202.08 11.412 201.864 11.925 201.864 12.609C201.864 13.275 202.197 13.878 202.863 14.418C203.547 14.94 204.366 15.426 205.32 15.876C206.274 16.308 206.931 16.614 207.291 16.794C207.651 16.974 208.11 17.244 208.668 17.604C209.226 17.964 209.649 18.306 209.937 18.63C210.675 19.494 211.044 20.457 211.044 21.519C211.044 23.391 210.423 24.831 209.181 25.839C207.939 26.847 206.319 27.351 204.321 27.351C203.259 27.351 202.089 27.171 200.811 26.811C199.551 26.433 198.48 25.956 197.598 25.38C197.634 24.282 197.778 22.797 198.03 20.925C198.75 20.781 199.614 20.709 200.622 20.709L201.189 23.949C202.179 24.255 203.223 24.408 204.321 24.408Z" fill="#5C5C5C"/>
</svg>
